<?xml version="1.0" encoding="UTF-8" standalone="no"?>
<svg
   xmlns:svg="http://www.w3.org/2000/svg"
   xmlns="http://www.w3.org/2000/svg"
   xmlns:sodipodi="http://sodipodi.sourceforge.net/DTD/sodipodi-0.dtd"
   xmlns:inkscape="http://www.inkscape.org/namespaces/inkscape"
   version="1.1"
   width="86px"
   height="86px"
   viewBox="0 0 86 86"
   style="enable-background:new 0 0 86 86;"
   xml:space="preserve"
   sodipodi:docname="app-icon.svg"
   inkscape:version="0.92.4 (unknown)">
  <g>
    <path
        style="fill:#ffffff;fill-opacity:1"
        d="M 43 0 A 43 43 0 0 0 0 43 A 43 43 0 0 0 43 86 A 43 43 0 0 0 86 43 A 43 43 0 0 0 43 0 z M 43.001953 11 C 60.647006 11 75 25.352961 75 43 C 75 60.647039 60.647006 75 43.001953 75 C 36.2654 75 29.818112 72.931524 24.365234 69.017578 C 23.133673 68.134404 22.855068 66.423704 23.738281 65.189453 C 24.61875 63.957946 26.32936 63.671887 27.566406 64.560547 C 32.081213 67.802511 37.419369 69.513672 43.003906 69.513672 C 57.623544 69.513672 69.517578 57.621754 69.517578 43 C 69.517578 28.380989 57.623544 16.486328 43.003906 16.486328 C 28.381526 16.486328 16.488281 28.378246 16.488281 43 C 16.488281 43.005226 16.488278 43.0104 16.488281 43.015625 L 23.896484 43.015625 C 24.159802 43.015625 24.408108 43.06341 24.564453 43.277344 C 24.720798 43.49128 24.761975 43.726971 24.679688 43.976562 L 18.923828 61.410156 C 18.830568 61.698148 18.586084 61.89827 18.287109 61.953125 L 18.142578 61.958984 C 17.890232 61.958984 17.656345 61.845917 17.5 61.648438 C 14.565101 57.973114 13.148655 55.5238 11.947266 50.943359 C 11.43047 48.974231 11.078744 46.135445 11.029297 44.351562 C 11.027699 44.31319 11.026853 44.274719 11.025391 44.236328 C 11.02185 44.065009 11.004912 43.845959 11.007812 43.699219 C 11.007955 43.687684 11.013132 43.680999 11.013672 43.669922 C 11.009068 43.446582 11 43.223834 11 43 C 11 25.355704 25.356901 11 43.001953 11 z M 41.193359 25.103516 C 42.707438 25.103516 43.9375 26.331689 43.9375 27.845703 L 43.9375 42.125 L 56.412109 42.125 C 57.92893 42.125 59.154297 43.353173 59.154297 44.867188 C 59.154297 46.381202 57.926187 47.611328 56.412109 47.611328 L 41.193359 47.611328 C 39.67928 47.611328 38.451172 46.381201 38.451172 44.867188 L 38.451172 27.845703 C 38.451172 26.331689 39.67928 25.103516 41.193359 25.103516 z "/>
  </g>
</svg>
