<?xml version="1.0" encoding="UTF-8" standalone="no"?>
<svg version="1.1" viewBox="0 0 86 86" xmlns="http://www.w3.org/2000/svg">
  <g style="fill:#ffffff">
    <rect style="opacity:0" width="86" height="86"/>
    <path d="M 43 0 A 43 43 0 0 0 0 43 A 43 43 0 0 0 43 86 A 43 43 0 0 0 86 43 A 43 43 0 0 0 43 0 z M 43 11 C 60.65 11 75 25.35 75 43 C 75 60.66 60.66 75 43 75 C 36.265 75 29.819141 72.929297 24.369141 69.029297 C 23.139141 68.139297 22.860234 66.429219 23.740234 65.199219 C 24.620234 63.969219 26.330313 63.680312 27.570312 64.570312 C 32.090312 67.810313 37.429766 69.519531 43.009766 69.519531 C 70.919766 68.669531 80.789766 20.400234 43.009766 16.490234 C 28.379766 16.490234 16.490234 28.38 16.490234 43 L 23.880859 43.025391 C 24.150859 43.025391 24.390781 43.075156 24.550781 43.285156 C 24.705781 43.500156 24.744062 43.734375 24.664062 43.984375 L 18.904297 61.414062 C 18.804297 61.704062 18.565625 61.905078 18.265625 61.955078 L 18.125 61.955078 C 17.875 61.955078 17.644375 61.844531 17.484375 61.644531 C 14.554375 57.969531 13.135547 55.519453 11.935547 50.939453 C 11.415547 48.969453 11.065625 46.129609 11.015625 44.349609 C 11.000625 44.149609 10.99 43.899922 11 43.669922 L 11 43 C 11 25.355 25.36 11 43 11 z M 41.189453 25.099609 C 42.739453 25.114609 43.919453 26.279609 43.939453 27.849609 L 43.939453 42.109375 L 56.400391 42.109375 C 57.915391 42.109375 59.140625 43.339609 59.140625 44.849609 C 59.140625 46.359609 57.910391 47.589844 56.400391 47.589844 L 41.179688 47.589844 C 39.669688 47.589844 38.439453 46.359609 38.439453 44.849609 L 38.439453 27.849609 C 38.449453 26.339609 39.679453 25.099609 41.189453 25.099609 z"/>
  </g>
</svg>
