<?xml version="1.0" encoding="UTF-8" standalone="no"?>
<svg version="1.1" viewBox="0 0 64 64" xmlns="http://www.w3.org/2000/svg">
  <g style="fill:#ffffff">
    <rect style="opacity:0" width="64" height="64"/>
    <path style="opacity:0.8;fill:none;stroke:#ffffff;stroke-width:2" d="M 32,9.16 C 19.38,9.16 9.16,19.38 9.16,32 v 22.08 c 0,0.42 0.34,0.76 0.76,0.76 H 32 C 44.61,54.84 54.84,44.61 54.84,32 V 9.92 c 0,-0.42 -0.34,-0.76 -0.76,-0.76 0,0 -14.72,0 -22.08,0 z"/>
    <path style="opacity:0.4" d="m 39.93,11.97 -2.1,0.537 c -0.59,0.15 -14.476,3.84 -14.476,14.23 0,3.02 2.15,5.24 4.23,7.38 l 0.06,0.193 c 0.74,3.11 -0.21,6.876 -2.47,9.836 -1.47,1.93 -3.36,3.32 -5.5,4.1 0,0 -3.78,0.71 -3.78,0.71 l 0.13,1.33 3.836,-0.685 c 6.534,-1.368 16.736,-4.677 16.736,-13.543 0,-2.432 -1.4,-4.06 -3,-5.53 1.816,-2.945 7.986,-5.22 7.986,-5.22 l 5.89,-2.1 c 1.66,-0.53 2.89,-1.03 2.89,-1.03 l -0.48,-1.25 -2.77,0.99 c -1.22,0.39 -2.73,0.816 -4.26,1.11 -3.216,0.61 -5.55,-2.396 -5.55,-2.4 l -0.29,-0.39 -0.96,0.36 c 0.34,-4.536 2.465,-6.9 2.465,-6.9 z"/>
    <path d="m 39.93,11.97 -2.1,0.537 c -0.59,0.15 -14.476,3.84 -14.476,14.23 0,3.02 2.15,5.24 4.23,7.38 l 0.06,0.193 c 0.74,3.11 -0.21,6.876 -2.47,9.836 -1.47,1.93 -3.36,3.32 -5.5,4.1 -0.0057,0.0039 -3.78,0.71 -3.78,0.71 l 0.13,1.33 3.836,-0.685 c 6.534,-1.368 16.736,-4.677 16.736,-13.543 0,-2.432 -1.4,-4.06 -3,-5.53 1.816,-2.945 7.986,-5.22 7.986,-5.22 l 5.89,-2.1 c 1.66,-0.53 2.89,-1.03 2.89,-1.03 l -0.48,-1.25 -2.77,0.99 c -1.22,0.39 -2.73,0.816 -4.26,1.11 -3.216,0.61 -5.55,-2.396 -5.55,-2.4 l -0.29,-0.39 -0.96,0.36 c 0.34,-4.536 2.465,-6.9 2.465,-6.9 z m -3.531,2.51 c -0.754,1.4 -1.627,3.378 -1.73,6.717 -1.676,0.795 -4.08,2.18 -5.6,4.146 -0.188,-0.54 -0.3,-1.12 -0.3,-1.77 0,-4.46 3.79,-7.22 4.78,-7.87 1.06,-0.51 2.06,-0.93 2.84,-1.22 z m -7.57,4.23 c -0.8,1.34 -1.39,2.966 -1.395,4.86 0,3.326 2.27,5.31 4.275,7.06 1.824,1.594 3.547,3.1 3.547,5.426 0,2.916 -1.26,5.38 -3.79,7.38 0.61,-0.99 1.045,-2.15 1.045,-3.46 0,-2.68 -2.02,-4.75 -3.97,-6.76 -1.98,-2.04 -3.85,-3.94 -3.85,-6.42 0,-3.46 1.83,-6.105 4.137,-8.08 z m 7.726,3.115 c 0.61,0.666 2.02,1.99 3.97,2.455 -1.63,0.66 -6.12,2.66 -7.94,5.34 -5.07,-3.575 -0.33,-6.06 3.97,-7.795 z m -7.37,14 c 1.137266,1.31 1.99,2.63 1.99,4.12 0,3.686 -4.4,6.11 -4.615,6.226 -0.7,0.285 -2.225,0.814 -2.225,0.814 0,0 1.32,-1.28 1.896,-2.04 2.075,-2.716 3.12,-6.07 2.95,-9.12 z"/>
  </g>
</svg>
