<?xml version="1.0" encoding="UTF-8" standalone="no"?>
<svg
   xmlns:svg="http://www.w3.org/2000/svg"
   xmlns="http://www.w3.org/2000/svg"
   xmlns:sodipodi="http://sodipodi.sourceforge.net/DTD/sodipodi-0.dtd"
   xmlns:inkscape="http://www.inkscape.org/namespaces/inkscape"
   version="1.1"
   xml:space="preserve"
   sodipodi:docname="icon-config-entry.svg"
   inkscape:version="0.92.4 (unknown)"
   width="64"
   height="64">
  <rect
      style="opacity:0;fill:#ffffff"
      width="64"
      height="64"/>
  <path
      style="opacity:0.6;fill:#ffffff"
      d="M 47.907,56 H 16.092 C 13.836,56 12,54.164 12,51.907 V 12.092 C 12,9.836 13.836,8 16.092,8 h 19.859 c 1.966,0 4.595,1.091 5.983,2.484 l 7.591,7.62 C 50.913,19.496 52,22.127 52,24.092 V 51.907 C 52,54.164 50.164,56 47.907,56 Z M 16.092,10 C 14.938,10 14,10.938 14,12.092 V 51.907 C 14,53.062 14.938,54 16.092,54 H 47.907 C 49.062,54 50,53.062 50,51.907 V 24.092 c 0,-1.427 -0.884,-3.566 -1.891,-4.577 L 40.518,11.896 C 39.511,10.886 37.377,10 35.951,10 Z"
      inkscape:connector-curvature="0"/>
  <path
      style="fill:#ffffff"
      d="m 40.865,21 h 10.179 c 0,0 0.418334,-0.902462 -0.738749,-2.15269 C 46.882597,15.149134 44.474041,13.049368 41.259288,10 40.672447,9.437377 40.296834,9.2 39.044,9 c 0.0353,3.189401 0,9.988 0,9.988 0,0.925 0.878,2.012 1.821,2.012 z"
      inkscape:connector-curvature="0"
      sodipodi:nodetypes="scssccs" />
  <path
      inkscape:connector-curvature="0"
      style="fill:#ffffff;fill-opacity:0.4;stroke-width:0.63831335"
      d="m 41.292924,37.875749 -0.704677,-0.291718 c -0.29553,-0.123198 -0.474891,-0.424491 -0.441061,-0.741743 0.05808,-0.559179 0.05745,-1.126018 -6.38e-4,-1.685835 -0.03383,-0.317252 0.146169,-0.618545 0.441061,-0.741105 l 0.705315,-0.291717 c 0.5834,-0.241291 0.861697,-0.912817 0.619784,-1.495614 L 41.394413,31.37497 C 41.15952,30.81 40.463779,30.520881 39.896336,30.755149 l -0.704038,0.29108 c -0.29553,0.123198 -0.635103,0.03702 -0.835527,-0.211926 -0.353615,-0.435344 -0.754463,-0.836217 -1.192333,-1.191769 -0.248297,-0.201074 -0.333828,-0.541305 -0.211275,-0.836215 l 0.291061,-0.704081 c 0.241914,-0.583436 -0.03574,-1.254323 -0.619783,-1.496251 l -1.251695,-0.518326 c -0.584039,-0.242567 -1.255524,0.03575 -1.4968,0.619182 l -0.291701,0.704719 c -0.121914,0.29491 -0.423827,0.47492 -0.740421,0.44045 -0.560422,-0.05745 -1.127227,-0.05745 -1.687012,0 -0.316593,0.03383 -0.618506,-0.146178 -0.741059,-0.441726 l -0.291061,-0.706585 c -0.233616,-0.563647 -0.930634,-0.854088 -1.497439,-0.619182 l -1.252971,0.518965 c -0.582124,0.241928 -0.86042,0.912815 -0.619145,1.496889 l 0.2917,0.70472 c 0.121915,0.294909 0.03574,0.634502 -0.211914,0.834938 -0.435316,0.354275 -0.837441,0.755786 -1.192333,1.193683 -0.201701,0.246397 -0.541273,0.33321 -0.835527,0.21065 l -0.704676,-0.291718 c -0.583401,-0.24129 -1.254248,0.03638 -1.496162,0.619821 l -0.518933,1.253046 c -0.241913,0.582798 0.03638,1.253686 0.619784,1.495614 l 0.704038,0.291718 c 0.294892,0.122559 0.474253,0.423215 0.440423,0.740466 -0.05745,0.560456 -0.05745,1.127933 0,1.686474 0.03383,0.31789 -0.146169,0.618545 -0.44106,0.740466 l -0.705315,0.293633 c -0.582125,0.241929 -0.861059,0.912816 -0.619145,1.496252 l 0.518932,1.253685 c 0.233616,0.564286 0.93,0.85345 1.4968,0.619182 l 0.704677,-0.291717 c 0.180637,-0.07468 0.379146,-0.07086 0.552124,0 0.107872,0.04533 0.206807,0.116176 0.284041,0.212564 0.353615,0.43662 0.754464,0.836854 1.191695,1.192406 0.247658,0.2 0.333828,0.541306 0.211276,0.835577 l -0.291701,0.703442 c -0.241275,0.584713 0.03638,1.256239 0.620421,1.498167 l 1.252334,0.518326 c 0.583401,0.24129 1.254886,-0.03638 1.4968,-0.619821 l 0.2917,-0.705357 c 0.121914,-0.293633 0.423189,-0.473644 0.741059,-0.439812 0.560422,0.05809 1.127227,0.05809 1.685735,-6.38e-4 0.31787,-0.03319 0.618507,0.146178 0.741059,0.441088 l 0.291701,0.706 c 0.234253,0.564286 0.930632,0.852812 1.4968,0.619182 l 1.252333,-0.518325 c 0.582763,-0.241291 0.861059,-0.912817 0.619145,-1.498167 l -0.291061,-0.704055 c -0.122553,-0.295548 -0.03702,-0.63514 0.211913,-0.835577 0.435955,-0.354913 0.836803,-0.755147 1.192333,-1.192405 0.201063,-0.247673 0.541274,-0.33321 0.836165,-0.211926 l 0.703401,0.291717 c 0.584039,0.241928 1.254248,-0.03638 1.4968,-0.61982 l 0.518295,-1.252409 c 0.242551,-0.584712 -0.03511,-1.2556 -0.619146,-1.49689 m -11.057169,2.382896 c -2.352113,-0.974096 -3.469128,-3.671051 -2.495091,-6.023307 0.974675,-2.352256 3.671468,-3.47 6.02422,-2.495242 2.352113,0.975373 3.46849,3.67169 2.494453,6.023945 -0.974037,2.352256 -3.671468,3.469337 -6.023582,2.494604"/>
</svg>
