<?xml version="1.0" encoding="UTF-8" standalone="no"?>
<svg
   xmlns:svg="http://www.w3.org/2000/svg"
   xmlns="http://www.w3.org/2000/svg"
   xmlns:sodipodi="http://sodipodi.sourceforge.net/DTD/sodipodi-0.dtd"
   xmlns:inkscape="http://www.inkscape.org/namespaces/inkscape"
   version="1.1"
   viewBox="0 0 64 64"
   style="enable-background:new 0 0 64 64;"
   xml:space="preserve"
   sodipodi:docname="icon-folder.svg"
   inkscape:version="0.92.4 (unknown)">
  <g>
    <rect
        style="opacity:0;fill:#ffffff;"
        width="64"
        height="64"/>
    <path
        style="opacity:1;fill:#ffffff;fill-opacity:0.4;stroke:#ffffff;stroke-width:2;stroke-miterlimit:4;stroke-dasharray:none;stroke-opacity:1"
        d="M 22.368667,19.96334 H 10.03666 v -5.802341 c 0,-1.635369 1.40027,-3.124339 2.937943,-3.124339 h 9.308298 c 3.930224,0.168423 7.26828,4.457985 7.26828,4.457985 0,0 -3.906085,4.463668 -7.182514,4.468695 z"
        inkscape:connector-curvature="0"
        sodipodi:nodetypes="ccssccc"/>
    <path
        style="fill:#ffffff"
        d="M 51.75,53 H 12.25 C 10.458,53 9,51.542 9,49.75 V 20.875 C 9,19.841 9.841,19 10.875,19 h 8.64 c 2.131,0 4.938424,-0.488939 5.460424,-0.787939 0.602,-0.486 2.004637,-1.480879 2.728637,-2.066879 C 29.506092,14.828787 31.37,14.999 33.276,14.999 H 51.792 C 53.561,15 55,16.439 55,18.208 V 49.75 C 55,51.542 53.542,53 51.75,53 Z M 11,21 v 28.75 c 0,0.689 0.561,1.25 1.25,1.25 h 39.5 C 52.439,51 53,50.439 53,49.75 V 18.208 C 53,17.542 52.458,17 51.792,17 H 33.276 c -1.967,0 -2.642514,-0.36291 -4.409818,0.604303 -0.727,0.588 -2.276455,1.584879 -2.916455,2.097879 C 23.70718,21.107516 20.744,21 19.515,21 Z"
        inkscape:connector-curvature="0"
        sodipodi:nodetypes="ssssssccscssscsssssssccsc" />
  </g>
</svg>
