<?xml version="1.0" encoding="utf-8" standalone="no"?>
<svg version="1.1" viewBox="0 0 64 64" xmlns="http://www.w3.org/2000/svg">
  <g style="fill:#ffffff">
    <rect style="opacity:0" width="64" height="64"/>
    <path d="M 51.75,53 H 12.25 C 10.458,53 9,51.542 9,49.75 V 20.875 C 9,19.841 9.841,19 10.875,19 h 8.64 c 2.131,0 4.938,-0.489 5.46,-0.788 0.602,-0.486 2,-1.481 2.729,-2.067 C 29.506,14.829 31.37,15 33.276,15 H 51.792 C 53.561,15 55,16.439 55,18.208 V 49.75 C 55,51.542 53.542,53 51.75,53 Z M 11,21 v 28.75 c 0,0.689 0.561,1.25 1.25,1.25 h 39.5 C 52.439,51 53,50.439 53,49.75 V 18.208 C 53,17.542 52.458,17 51.792,17 H 33.276 c -1.967,0 -2.6425,-0.363 -4.41,0.604 -0.727,0.588 -2.276,1.585 -2.916,2.098 C 23.707,21.108 20.744,21 19.515,21 z"/>
    <path style="fill-opacity:0.4;stroke:#ffffff;stroke-width:2" d="M 22.369,19.963 H 10.037 v -5.802 c 0,-1.635 1.4,-3.124 2.938,-3.124 h 9.308 c 3.93,0.168 7.268,4.458 7.268,4.458 0,0 -3.906,4.464 -7.182,4.469 z"/>
    <path style="opacity:0.4" d="m 43.293,36.876 -0.705,-0.292 c -0.296,-0.123 -0.475,-0.424 -0.441,-0.742 0.058,-0.559 0.057,-1.126 0,-1.686 -0.034,-0.317 0.146,-0.62 0.441,-0.741 l 0.705,-0.292 c 0.583,-0.241 0.862,-0.913 0.62,-1.496 L 43.394,30.375 C 43.16,29.81 42.464,29.521 41.896,29.755 l -0.704,0.291 c -0.296,0.123 -0.635,0.037 -0.836,-0.212 C 40,29.4 39.602,29 39.164,28.643 38.916,28.441 38.831,28.101 38.953,27.806 l 0.291,-0.704 c 0.242,-0.583 -0.036,-1.254 -0.62,-1.496 l -1.252,-0.518 c -0.584,-0.243 -1.256,0.036 -1.497,0.619 l -0.292,0.705 c -0.122,0.295 -0.424,0.475 -0.74,0.44 -0.56,-0.057 -1.127,-0.057 -1.687,0 -0.317,0.0338 -0.619,-0.146 -0.741,-0.442 L 32.125,25.705 C 31.891,25.141 31.194,24.851 30.627,25.086 l -1.253,0.519 c -0.582,0.242 -0.86,0.913 -0.619,1.497 l 0.292,0.705 c 0.122,0.295 0.036,0.635 -0.212,0.835 -0.435,0.354 -0.837,0.756 -1.192,1.194 -0.202,0.247 -0.541,0.333 -0.836,0.211 l -0.705,-0.292 c -0.583,-0.241 -1.254,0.036 -1.496,0.62 l -0.519,1.253 c -0.242,0.583 0.036,1.254 0.62,1.496 l 0.704,0.292 c 0.295,0.123 0.474,0.423 0.44,0.74 -0.057,0.56 -0.057,1.128 0,1.686 0.034,0.318 -0.146,0.619 -0.441,0.74 l -0.705,0.294 c -0.582,0.242 -0.861,0.913 -0.619,1.496 l 0.519,1.254 c 0.234,0.564 0.93,0.853 1.497,0.619 l 0.705,-0.292 c 0.181,-0.075 0.379,-0.071 0.552,0 0.108,0.045 0.207,0.116 0.284,0.213 0.354,0.437 0.754,0.837 1.192,1.192 0.248,0.2 0.334,0.541 0.211,0.836 l -0.292,0.703 c -0.241,0.585 0.036,1.256 0.62,1.498 l 1.252,0.518 c 0.583,0.241 1.255,-0.036 1.497,-0.62 l 0.292,-0.705 c 0.122,-0.294 0.423,-0.474 0.741,-0.44 0.56,0.058 1.127,0.058 1.686,0 0.318,-0.033 0.619,0.146 0.741,0.441 l 0.292,0.706 c 0.234,0.564 0.93,0.853 1.497,0.619 l 1.252,-0.518 c 0.583,-0.241 0.861,-0.913 0.619,-1.498 L 38.953,42.193 c -0.123,-0.296 -0.037,-0.635 0.212,-0.836 0.436,-0.355 0.837,-0.755 1.192,-1.192 0.201,-0.248 0.541,-0.333 0.836,-0.212 l 0.703,0.292 c 0.584,0.242 1.254,-0.037 1.497,-0.62 l 0.518,-1.252 c 0.243,-0.585 -0.035,-1.256 -0.619,-1.497 m -11.057,2.383 c -2.352,-0.974 -3.469,-3.671 -2.495,-6.023 0.975,-2.352 3.671,-3.47 6.024,-2.495 2.352,0.975 3.469,3.672 2.494,6.024 -0.974,2.352 -3.672,3.469 -6.024,2.495 z"/>
  </g>
</svg>
