<?xml version="1.0" encoding="utf-8" standalone="no"?>
<svg version="1.1" viewBox="0 0 64 64" xmlns="http://www.w3.org/2000/svg">
  <g style="fill:#ffffff">
    <rect style="opacity:0" width="64" height="64"/>
    <path style="opacity:0.6" d="M 47.907,56 H 16.092 C 13.836,56 12,54.164 12,51.907 V 12.092 C 12,9.836 13.836,8 16.092,8 h 19.859 c 1.966,0 4.595,1.091 5.983,2.484 l 7.591,7.62 C 50.913,19.496 52,22.127 52,24.092 V 51.907 C 52,54.164 50.164,56 47.907,56 Z M 16.092,10 C 14.938,10 14,10.938 14,12.092 V 51.907 C 14,53.062 14.938,54 16.092,54 H 47.907 C 49.062,54 50,53.062 50,51.907 V 24.092 c 0,-1.427 -0.884,-3.566 -1.891,-4.577 L 40.518,11.896 C 39.511,10.886 37.377,10 35.951,10 z"/>
    <path d="M 40.865,21 H 51.38 c 0,0 -0.58,-1.63 -1.23,-2.27 L 41.28,9.96 C 40.7,9.39 39,8.64 39,8.64 V 19 c 0,0.925 0.922,2.012 1.865,2.012 z"/>
    <path style="opacity:0.4" d="m 41.293,37.876 -0.705,-0.292 c -0.296,-0.123 -0.475,-0.424 -0.441,-0.742 0.058,-0.559 0.057,-1.126 0,-1.686 -0.034,-0.317 0.146,-0.619 0.441,-0.741 l 0.705,-0.292 c 0.583,-0.241 0.862,-0.913 0.62,-1.5 L 41.394,31.375 C 41.16,30.81 40.464,30.521 39.896,30.755 l -0.704,0.291 c -0.296,0.123 -0.635,0.037 -0.836,-0.212 -0.354,-0.435 -0.754,-0.836 -1.192,-1.192 -0.248,-0.202 -0.334,-0.541 -0.211,-0.836 l 0.291,-0.704 c 0.242,-0.583 -0.036,-1.254 -0.62,-1.49651 l -1.252,-0.518 c -0.584,-0.243 -1.256,0.036 -1.497,0.619 l -0.292,0.705 c -0.122,0.295 -0.424,0.475 -0.74,0.44 -0.56,-0.057 -1.127,-0.057 -1.687,0 -0.317,0.034 -0.619,-0.146 -0.741,-0.442 l -0.291,-0.707 c -0.234,-0.564 -0.931,-0.854 -1.497,-0.619 l -1.253,0.519 c -0.582,0.242 -0.86,0.913 -0.619,1.497 l 0.292,0.705 c 0.122,0.295 0.036,0.635 -0.212,0.835 -0.435,0.354 -0.837,0.756 -1.192,1.194 -0.202,0.246 -0.541,0.333 -0.836,0.211 l -0.705,-0.292 c -0.583,-0.242 -1.254,0.036 -1.496,0.62 l -0.519,1.253 c -0.242,0.583 0.036,1.254 0.62,1.496 l 0.704,0.292 c 0.295,0.123 0.474,0.423 0.44,0.74 -0.057,0.56 -0.057,1.128 0,1.686 0.034,0.318 -0.146,0.619 -0.441,0.74 l -0.705,0.294 c -0.582,0.242 -0.861,0.913 -0.619,1.496 l 0.519,1.254 c 0.234,0.564 0.93,0.853 1.497,0.619 l 0.705,-0.292 c 0.181,-0.075 0.379,-0.071 0.552,0 0.108,0.045 0.207,0.11618 0.284,0.213 0.354,0.437 0.754,0.837 1.192,1.192 0.248,0.2 0.334,0.541 0.211,0.836 l -0.292,0.703 c -0.241,0.585 0.036,1.256 0.62,1.498 l 1.252,0.518 c 0.583,0.241 1.255,-0.036 1.497,-0.62 l 0.292,-0.705 c 0.122,-0.294 0.423,-0.474 0.741,-0.44 0.56,0.058 1.127,0.058 1.686,0 0.318,-0.033 0.619,0.146 0.741,0.441 l 0.292,0.706 c 0.234,0.564 0.931,0.853 1.497,0.619 l 1.2523,-0.518 c 0.583,-0.242 0.861,-0.913 0.619,-1.498 l -0.291,-0.704 c -0.123,-0.296 -0.037,-0.635 0.212,-0.836 0.436,-0.355 0.837,-0.755 1.192,-1.192 0.201,-0.248 0.541,-0.333 0.836,-0.212 l 0.703,0.292 c 0.584,0.242 1.254,-0.036 1.497,-0.62 l 0.518,-1.252 c 0.243,-0.585 -0.035,-1.257 -0.619,-1.497 m -11.057,2.383 c -2.352,-0.974 -3.469,-3.671 -2.495,-6.023 0.975,-2.352 3.671,-3.47 6.024,-2.495 2.352,0.975 3.469,3.672 2.494,6.024 -0.974,2.352 -3.671,3.469 -6.024,2.495 z"/>
  </g>
</svg>
