<?xml version="1.0" encoding="utf-8" standalone="no"?>
<svg version="1.1" viewBox="0 0 64 64" xmlns="http://www.w3.org/2000/svg">
  <g style="fill:#ffffff">
    <rect style="opacity:0" width="64" height="64"/>
    <path style="opacity:0.6" d="M 47.907,56 H 16.092 C 13.836,56,12,54.164,12,51.907 V 12.092 C 12,9.836,13.836,8,16.092,8 h 19.859 c 1.966,0,4.595,1.091,5.983,2.484l7.591,7.62 C 50.913,19.496,52,22.127,52,24.092 v 27.815 C 52,54.164,50.164,56,47.907,56 z  M 16.092,10 C 14.938,10,14,10.938,14,12.092 v 39.815 C 14,53.062,14.938,54,16.092,54 h 31.815 C 49.062,54,50,53.062,50,51.907 V 24.092 c 0-1.427-0.884-3.566-1.891-4.577 l -7.591-7.619C39.511,10.886,37.377,10,35.951,10 H 16.092 z"/>
    <path d="M 40.865,21 H 51.3 c -0.216,-1.036 -1.366,-2.432 -1.366,-2.432 l -8.458,-8.473 c 0,0 -1.105,-0.941 -2.476,-1.406 V 18.988 C 39,19.913 39.922,21 40.865,21 z"/>
    <rect x="21" y="26" width="22" height="2"/>
    <rect x="21" y="35" width="22" height="2"/>
    <rect x="21" y="44" width="22" height="2"/>
  </g>
</svg>
