<?xml version="1.0" encoding="UTF-8" standalone="no"?>
<svg
    xmlns:svg="http://www.w3.org/2000/svg"
    xmlns="http://www.w3.org/2000/svg"
    xmlns:sodipodi="http://sodipodi.sourceforge.net/DTD/sodipodi-0.dtd"
    xmlns:inkscape="http://www.inkscape.org/namespaces/inkscape"
    version="1.1"
    viewBox="0 0 64 64"
    style="enable-background:new 0 0 64 64;"
    xml:space="preserve"
    sodipodi:docname="icon-config-group-open.svg"
    inkscape:version="0.92.4 (unknown)">
  <rect
      style="opacity:0;fill:#ffffff;"
      width="64"
      height="64"/>
  <path
      style="opacity:0.4;fill:#ffffff;fill-opacity:1;fill-rule:evenodd;stroke:#000000;stroke-width:0;stroke-linecap:butt;stroke-linejoin:miter;stroke-miterlimit:4;stroke-dasharray:none;stroke-opacity:1"
      d="m 10.125,44.8125 c 0,0 0,-31.4375 -0.0625,-31.75 C 10,12.75 11.9375,10.875 11.9375,10.875 L 23,10.9375 27.25,12.875 30,15.75 l 23.0625,0.3125 0.875,2 v 6.928301 l -17.771447,0.05178 -7.0625,2.958946 -13.931218,0.198223 z"
      inkscape:connector-curvature="0"
      sodipodi:nodetypes="csccccccccccc"/>
  <path
      style="color:#000000;shape-padding:0;clip-rule:nonzero;display:inline;overflow:visible;visibility:visible;opacity:1;isolation:auto;mix-blend-mode:normal;color-interpolation:sRGB;color-interpolation-filters:linearRGB;solid-color:#000000;solid-opacity:1;vector-effect:none;fill:#ffffff;fill-opacity:1;fill-rule:nonzero;stroke:none;stroke-width:2;stroke-linecap:butt;stroke-linejoin:miter;stroke-miterlimit:4;stroke-dasharray:none;stroke-dashoffset:0;stroke-opacity:1;color-rendering:auto;shape-rendering:auto;enable-background:accumulate"
      d="m 12.974609,10.037109 c -2.183224,0 -3.9374996,1.916851 -3.9374996,4.123047 v 6.357422 C 9.014559,20.633632 9,20.752444 9,20.875 V 49.75 C 9,51.542 10.458,53 12.25,53 h 39.5 C 53.542,53 55,51.542 55,49.75 L 60.26153,26.559903 59.40625,25 54.90625,24.65625 55,18.207031 c 0.02571,-1.768813 -1.438031,-3.207984 -3.207031,-3.208984 H 33.275391 c -0.939095,0 -1.866912,-0.0374 -2.783203,0.07813 l -0.152344,-0.195313 c 0,0 -3.382026,-4.645268 -8.013672,-4.84375 h -0.02148 z m 17.504536,6.961666 C 31.114811,16.968601 32.291891,17 33.275391,17 H 51.792969 C 52.458969,17 53,17.541031 53,18.207031 V 25.375 l 5.4375,0.25 0.279426,1.142152 L 53,49.75 C 52.833681,50.418625 52.439,51 51.75,51 H 12.25 C 11.561,51 11,50.439 11,49.75 11.0046,37.872803 10.9702,25.995649 11.04105,14.118644 c 0.0018,-1.050833 1.048532,-1.87609 2.005701,-1.881879 2.702885,-0.01635 7.120757,-0.05002 9.452625,-0.03234 2.188432,0.0166 3.631365,1.326258 5.647052,3.327713 0.949175,1.157872 1.697133,1.496767 2.3328,1.466593 z"
      inkscape:connector-curvature="0"
      sodipodi:nodetypes="sscssssscccscsccccscssscccsssccsscsc"/>
  <path
      style="fill:#ffffff;stroke-width:0.86937827"
      d="m 51.208388,52.82826 h -39.5 c -1.7920001,0 -2.9929161,-1.101983 -2.6769381,-2.45641 L 14.122892,28.547591 c 0.182322,-0.781516 1.171613,-1.41716 2.205613,-1.41716 h 8.64 c 2.131,0 4.212137,-0.01017 5.599359,-0.595539 0.687695,-0.367327 2.265756,-1.119275 3.093083,-1.562185 2.034147,-0.994956 3.868042,-0.866306 5.774042,-0.866306 h 18.516 c 2.831324,0.03201 2.954089,1.088379 2.642167,2.425422 L 55.03145,50.37185 c -0.315978,1.354427 -2.031062,2.45641 -3.823062,2.45641 z M 15.944601,29.110818 11.03145,50.37185 c -0.120399,0.521012 0.340592,0.944773 1.029592,0.944773 h 39.5 c 0.689,0 1.352903,-0.423101 1.470408,-0.944773 L 58.161018,27.598765 C 58.2746,27.094507 58.451599,26.12777 57.785659,26.118794 l -18.54725,-0.25 c -1.966821,-0.02651 -2.521385,-0.06784 -4.459235,0.663199 -0.83068,0.444421 -2.39587,1.155259 -3.126326,1.542994 -2.490345,1.062176 -5.245504,1.000422 -6.474497,1.004581 z"
      inkscape:connector-curvature="0"
      sodipodi:nodetypes="ssssssccscssscsssssssccsc"/>
  <path
      d="m 44.69334,40.5006 -0.501208,-0.233374 c -0.210015,-0.09856 -0.28892,-0.339593 -0.19385,-0.593395 0.166336,-0.447343 0.287333,-0.900814 0.360864,-1.348668 0.04094,-0.253801 0.249527,-0.494836 0.511711,-0.592883 l 0.626785,-0.233375 c 0.518444,-0.193032 0.885029,-0.730253 0.816426,-1.196491 L 46.168034,35.299977 C 46.101214,34.848038 45.60661,34.616706 45.102438,34.80412 l -0.625627,0.232864 c -0.262833,0.09856 -0.516019,0.02962 -0.622993,-0.169541 -0.189572,-0.348275 -0.42432,-0.668974 -0.6984,-0.953415 -0.155535,-0.160859 -0.151028,-0.433044 0.01023,-0.668972 l 0.383775,-0.563265 c 0.318596,-0.466748 0.240286,-1.003458 -0.175091,-1.197001 l -0.890248,-0.414661 c -0.415235,-0.194053 -1.012083,0.0286 -1.330167,0.495346 l -0.384423,0.563776 c -0.160747,0.235927 -0.440866,0.379936 -0.686752,0.352359 -0.436023,-0.04596 -0.889467,-0.04596 -1.349877,10e-4 -0.260528,0.02707 -0.463471,-0.116942 -0.49816,-0.353381 l -0.08138,-0.565307 c -0.06607,-0.450918 -0.561424,-0.683271 -1.065222,-0.495346 l -1.113622,0.415172 c -0.517559,0.193542 -0.884008,0.730252 -0.81619,1.197511 l 0.0823,0.563776 c 0.03431,0.235927 -0.107421,0.507602 -0.348508,0.667951 -0.424196,0.283419 -0.831964,0.604629 -1.209744,0.954946 -0.214178,0.197117 -0.504445,0.266568 -0.713576,0.16852 l -0.501209,-0.233374 c -0.414997,-0.193032 -1.011198,0.02911 -1.329793,0.495856 l -0.683749,1.002438 c -0.318459,0.466238 -0.239629,1.002948 0.175228,1.196491 l 0.500698,0.233374 c 0.209642,0.09805 0.288682,0.338572 0.193613,0.592373 -0.166099,0.448364 -0.287743,0.902346 -0.360511,1.349179 -0.04107,0.254312 -0.249526,0.494836 -0.511575,0.592373 l -0.627195,0.234906 c -0.517559,0.193543 -0.884517,0.730253 -0.816052,1.197002 l 0.146407,1.002948 c 0.06593,0.451428 0.561051,0.68276 1.064713,0.495346 l 0.626274,-0.233375 c 0.16052,-0.05975 0.318507,-0.05669 0.441699,0 0.07658,0.03626 0.140543,0.09294 0.181668,0.170052 0.189298,0.349296 0.424183,0.669483 0.697753,0.953924 0.15516,0.160349 0.151028,0.433045 -0.01009,0.668462 l -0.38415,0.562754 c -0.318358,0.46777 -0.240176,1.004991 0.175191,1.198534 l 0.890759,0.41466 c 0.414998,0.193032 1.011708,-0.02911 1.330305,-0.495856 l 0.384559,-0.564286 c 0.160473,-0.234907 0.440081,-0.378915 0.687125,-0.35185 0.435887,0.04647 0.889331,0.04647 1.348725,-5.1e-4 0.26141,-0.02655 0.46347,0.116943 0.498296,0.35287 l 0.08202,0.564797 c 0.06644,0.451429 0.561698,0.68225 1.064711,0.495346 l 1.112975,-0.414661 c 0.517933,-0.193032 0.884517,-0.730253 0.816462,-1.198533 l -0.08193,-0.563244 c -0.03469,-0.236438 0.106528,-0.508112 0.348645,-0.668461 0.424843,-0.283931 0.831316,-0.604118 1.20947,-0.953925 0.213941,-0.198138 0.504445,-0.266568 0.714361,-0.169541 l 0.500187,0.233375 c 0.415372,0.193542 1.011199,-0.02911 1.330304,-0.495857 l 0.683102,-1.001927 c 0.31938,-0.46777 0.24106,-1.00448 -0.174445,-1.197512 m -9.35653,1.906317 c -1.672884,-0.779277 -1.988379,-2.936841 -0.70492,-4.818646 1.283967,-1.881804 3.680995,-2.77598 5.354253,-1.996193 1.672611,0.780298 1.987731,2.937351 0.704274,4.819156 -1.283458,1.881804 -3.680859,2.77547 -5.353607,1.995683"
      style="fill:#ffffff;fill-opacity:0.4;stroke-width:0.51065069"
      inkscape:connector-curvature="0"/>
</svg>
