<?xml version="1.0" encoding="UTF-8" standalone="no"?>
<svg
   xmlns:svg="http://www.w3.org/2000/svg"
   xmlns="http://www.w3.org/2000/svg"
   xmlns:sodipodi="http://sodipodi.sourceforge.net/DTD/sodipodi-0.dtd"
   xmlns:inkscape="http://www.inkscape.org/namespaces/inkscape"
   version="1.1"
   viewBox="0 0 64 64"
   style="enable-background:new 0 0 64 64;"
   xml:space="preserve"
   sodipodi:docname="icon-folder-open.svg"
   inkscape:version="0.92.4 (unknown)">
  <rect
      style="opacity:0;fill:#ffffff;"
      width="64"
      height="64"/>
  <path
      style="opacity:0.4;fill:#ffffff;fill-opacity:1;fill-rule:evenodd;stroke:#000000;stroke-width:0;stroke-linecap:butt;stroke-linejoin:miter;stroke-miterlimit:4;stroke-dasharray:none;stroke-opacity:1"
      d="m 10.125,44.8125 c 0,0 0,-31.4375 -0.0625,-31.75 C 10,12.75 11.9375,10.875 11.9375,10.875 L 23,10.9375 27.25,12.875 30,15.75 l 23.0625,0.3125 0.875,2 v 6.928301 l -17.771447,0.05178 -7.0625,2.958946 -13.931218,0.198223 z"
      inkscape:connector-curvature="0"
      sodipodi:nodetypes="csccccccccccc"/>
  <path
      style="color:#000000;shape-padding:0;clip-rule:nonzero;display:inline;overflow:visible;visibility:visible;opacity:1;isolation:auto;mix-blend-mode:normal;color-interpolation:sRGB;color-interpolation-filters:linearRGB;solid-color:#000000;solid-opacity:1;vector-effect:none;fill:#ffffff;fill-opacity:1;fill-rule:nonzero;stroke:none;stroke-width:2;stroke-linecap:butt;stroke-linejoin:miter;stroke-miterlimit:4;stroke-dasharray:none;stroke-dashoffset:0;stroke-opacity:1;color-rendering:auto;shape-rendering:auto;enable-background:accumulate"
      d="m 12.974609,10.037109 c -2.183224,0 -3.9374996,1.916851 -3.9374996,4.123047 v 6.357422 C 9.014559,20.633632 9,20.752444 9,20.875 V 49.75 C 9,51.542 10.458,53 12.25,53 h 39.5 C 53.542,53 55,51.542 55,49.75 L 60.26153,26.559903 59.40625,25 54.90625,24.65625 55,18.207031 c 0.02571,-1.768813 -1.438031,-3.207984 -3.207031,-3.208984 H 33.275391 c -0.939095,0 -1.866912,-0.0374 -2.783203,0.07813 l -0.152344,-0.195313 c 0,0 -3.382026,-4.645268 -8.013672,-4.84375 h -0.02148 z m 17.504536,6.961666 C 31.114811,16.968601 32.291891,17 33.275391,17 H 51.792969 C 52.458969,17 53,17.541031 53,18.207031 V 25.375 l 5.4375,0.25 0.279426,1.142152 L 53,49.75 C 52.833681,50.418625 52.439,51 51.75,51 H 12.25 C 11.561,51 11,50.439 11,49.75 11.0046,37.872803 10.9702,25.995649 11.04105,14.118644 c 0.0018,-1.050833 1.048532,-1.87609 2.005701,-1.881879 2.702885,-0.01635 7.120757,-0.05002 9.452625,-0.03234 2.188432,0.0166 3.631365,1.326258 5.647052,3.327713 0.949175,1.157872 1.697133,1.496767 2.3328,1.466593 z"
      inkscape:connector-curvature="0"
      sodipodi:nodetypes="sscssssscccscsccccscssscccsssccsscsc"/>
  <path
      style="fill:#ffffff;stroke-width:0.86937827"
      d="m 51.208388,52.82826 h -39.5 c -1.7920001,0 -2.9929161,-1.101983 -2.6769381,-2.45641 L 14.122892,28.547591 c 0.182322,-0.781516 1.171613,-1.41716 2.205613,-1.41716 h 8.64 c 2.131,0 4.212137,-0.01017 5.599359,-0.595539 0.687695,-0.367327 2.265756,-1.119275 3.093083,-1.562185 2.034147,-0.994956 3.868042,-0.866306 5.774042,-0.866306 h 18.516 c 2.831324,0.03201 2.954089,1.088379 2.642167,2.425422 L 55.03145,50.37185 c -0.315978,1.354427 -2.031062,2.45641 -3.823062,2.45641 z M 15.944601,29.110818 11.03145,50.37185 c -0.120399,0.521012 0.340592,0.944773 1.029592,0.944773 h 39.5 c 0.689,0 1.352903,-0.423101 1.470408,-0.944773 L 58.161018,27.598765 C 58.2746,27.094507 58.451599,26.12777 57.785659,26.118794 l -18.54725,-0.25 c -1.966821,-0.02651 -2.521385,-0.06784 -4.459235,0.663199 -0.83068,0.444421 -2.39587,1.155259 -3.126326,1.542994 -2.490345,1.062176 -5.245504,1.000422 -6.474497,1.004581 z"
      inkscape:connector-curvature="0"
      sodipodi:nodetypes="ssssssccscssscsssssssccsc"/>
</svg>
