<?xml version="1.0" encoding="utf-8" standalone="no"?>
<svg version="1.1" viewBox="0 0 64 64" xmlns="http://www.w3.org/2000/svg">
  <rect style="opacity:0;fill:#ffffff" width="64" height="64"/>
  <path style="opacity:0.9;fill:none;stroke:#ffffff;stroke-width:2;stroke-opacity:1" d="m 25.767,10.318 c -0.317,0 -0.638,0.067 -0.949,0.197 l -2.674,1.119 c -1.203,0.508 -1.814,2.019 -1.315,3.249 l 0.625,1.536 c 0.16,0.393 0.152,0.811 0,1.185 -0.095,0.235 -0.249,0.447 -0.453,0.615 -0.929,0.766 -1.788,1.643 -2.545,2.59 -0.429,0.537 -1.162,0.725 -1.79,0.461 l -1.488,-0.637 c -1.243,-0.524 -2.677,0.073 -3.192,1.339 l -1.1,2.722 c -0.515,1.265 0.072,2.725 1.316,3.249 l 1.51,0.636 c 0.628,0.265 1,0.914 0.927,1.602 -0.123,1.214 -0.125,2.433 0,3.644 0.07,0.688 -0.3,1.337 -0.927,1.602 l -1.51,0.637 c -1.202,0.507 -1.814,2.021 -1.316,3.249 l 1.1,2.722 c 0.515,1.264 1.948,1.862 3.192,1.339 l 1.51,-0.636 c 0.628,-0.265 1.341,-0.078 1.768,0.461 0.753,0.945 1.613,1.82 2.545,2.59 0.527,0.436 0.713,1.161 0.453,1.8 l -0.625,1.537 c -0.515,1.265 0.072,2.725 1.316,3.249 l 2.674,1.119 c 1.244,0.523 2.677,-0.074 3.192,-1.339 l 0.625,-1.537 c 0.259,-0.639 0.898,-1.016 1.574,-0.944 1.193,0.126 2.39,0.126 3.58,0 0.676,-0.072 1.314,0.305 1.574,0.944 l 0.625,1.537 c 0.514,1.263 1.95,1.863 3.192,1.339 l 2.674,-1.119 c 1.204,-0.509 1.814,-2.02 1.316,-3.249 l -0.625,-1.537 c -0.26,-0.64 -0.076,-1.364 0.453,-1.8 0.929,-0.766 1.788,-1.642 2.545,-2.59 0.429,-0.537 1.14,-0.725 1.768,-0.461 l 1.51,0.637 c 1.242,0.524 2.677,-0.073 3.192,-1.339 l 1.1,-2.722 c 0.516,-1.265 -0.072,-2.725 -1.316,-3.249 l -1.51,-0.637 c -0.628,-0.265 -1,-0.914 -0.927,-1.602 0.124,-1.215 0.124,-2.433 0,-3.644 -0.072,-0.688 0.3,-1.337 0.927,-1.602 l 1.51,-0.637 c 1.202,-0.506 1.814,-2.021 1.316,-3.249 l -1.1,-2.722 c -0.515,-1.264 -1.948,-1.862 -3.192,-1.339 l -1.51,0.637 c -0.628,0.265 -1.341,0.077 -1.768,-0.461 -0.754,-0.945 -1.614,-1.821 -2.545,-2.59 -0.527,-0.436 -0.713,-1.161 -0.453,-1.8 l 0.625,-1.537 c 0.515,-1.265 -0.072,-2.725 -1.316,-3.249 L 39.182,10.515 c -1.243,-0.524 -2.677,0.074 -3.192,1.339 l -0.625,1.537 c -0.259,0.639 -0.898,1.016 -1.574,0.944 -1.193,-0.126 -2.391,-0.126 -3.58,0 -0.676,0.072 -1.314,-0.305 -1.574,-0.944 L 28,11.854 C 27.624,10.907 26.718,10.326 25.767,10.318 z"/>
  <ellipse style="fill:none;stroke:#ffffff;stroke-width:1;stroke-opacity:0.5" cx="32" cy="32" rx="12" ry="12"/>
</svg>
