<?xml version="1.0" encoding="utf-8" standalone="no"?>
<svg version="1.1" viewBox="0 0 64 64" xmlns="http://www.w3.org/2000/svg">
  <g style="fill:#ffffff">
    <rect style="opacity:0" width="64" height="64"/>
    <path style="opacity:0.4" d="m 10.125,44.8125 c 0,0 0,-31.4375 -0.0625,-31.75 C 10,12.75 11.9375,10.875 11.9375,10.875 L 23,10.9375 27.25,12.875 30,15.75 l 23.0625,0.3125 0.875,2 v 6.928 l -17.771,0.052 -7.0625,2.959 -13.931,0.198 z"/>
    <path d="M 12.975,10.037 C 10.791,10.037 9,11.954 9,14.16 V 50.371 C 9.442,52.501 10.566,52.748 12.25,53 h 39.5 c 2.323,0 2.937,-1.883 2.937,-1.883 L 60.593,26.531 c 0.312,-1.337 0.189,-2.394 -2.642,-2.426 L 55,24.1 V 18.207 C 55.026,16.438 53.562,15 51.793,15 H 30.34 c 0,0 -3.382,-4.764 -8.014,-4.963 h -0.021 z M 22.5,12.205 c 2.188,0.017 3.631,1.325 5.646,3.326 0,0 1.372,1.467 2.332,1.467 l 21.314,0 C 52.459,17 53,17.541 53,18.207 V 24.1 l -13.564,0 c -1.906,0 -3.741,-0.128 -5.775,0.867 -0.827,0.443 -2.404,1.195 -3.092,1.562 -1.387,0.585 -3.469,0.596 -5.6,0.596 h -8.641 c -1.034,0 -2.023,0.634 -2.205,1.416 L 11,41.939 V 14.119 c 0.002,-1.051 0.991,-1.883 2.047,-1.883 z M 37.984,26 H 57.8 c 0.666,0 0.474,1.095 0.36,1.6 L 53,49.75 C 52.834,50.419 52.439,51 51.75,51 h -39.5 c -0.54,0 -1.178,-0.45 -1.172,-0.828 l 4.86787,-21.06 9.232,-0.031 c 1.229,0 3.984,0.056 6.475,-1 C 32.3838,27.686 33.949,26.976 34.779,26.531 36.233,25.983 36.908,26.011 37.984,26 z"/>
    <path style="opacity:0.4" d="m 44.693,40.5 -0.501,-0.233 c -0.21,-0.099 -0.289,-0.34 -0.194,-0.593 0.166,-0.447 0.287,-0.9 0.361,-1.349 0.041,-0.254 0.25,-0.495 0.512,-0.593 l 0.627,-0.233 c 0.518,-0.193 0.885,-0.73 0.816,-1.196 L 46.168,35.3 C 46.101,34.848 45.607,34.617 45.102,34.804 l -0.626,0.233 c -0.263,0.099 -0.516,0.03 -0.623,-0.17 -0.19,-0.348 -0.424,-0.67 -0.698,-0.953 -0.155,-0.161 -0.151,-0.433 0.01,-0.669 l 0.384,-0.563 c 0.319,-0.467 0.24,-1 -0.175,-1.197 l -0.89,-0.415 c -0.415,-0.194 -1.012,0.0286 -1.33,0.495 l -0.384,0.564 c -0.161,0.236 -0.441,0.38 -0.687,0.352 -0.436,-0.046 -0.889,-0.046 -1.35,0 -0.26,0.027 -0.463,-0.117 -0.498,-0.353 l -0.081,-0.565 c -0.066,-0.451 -0.561,-0.683 -1.065,-0.495 l -1.114,0.415 c -0.517,0.194 -0.884,0.73 -0.816,1.198 l 0.082,0.564 c 0.034,0.236 -0.107,0.508 -0.349,0.668 -0.424,0.283 -0.832,0.605 -1.21,0.955 -0.214,0.197 -0.504,0.267 -0.714,0.169 l -0.501,-0.233 c -0.415,-0.193 -1.011,0.029 -1.33,0.496 l -0.684,1 c -0.319,0.466 -0.24,1 0.175,1.196 l 0.5,0.233 c 0.21,0.098 0.289,0.339 0.194,0.592 -0.166,0.448 -0.288,0.902 -0.36,1.349 -0.041,0.254 -0.25,0.495 -0.512,0.592 l -0.627,0.235 c -0.518,0.194 -0.885,0.73 -0.816,1.197 l 0.146,1 c 0.066,0.451 0.561,0.683 1.065,0.495 l 0.626,-0.233 c 0.16,-0.06 0.319,-0.057 0.442,0 0.077,0.036 0.141,0.093 0.182,0.17 0.189,0.349 0.424,0.669 0.698,0.954 0.155,0.16 0.151,0.433 -0.01,0.668 l -0.384,0.563 c -0.318,0.468 -0.24,1 0.175,1.199 l 0.891,0.415 c 0.415,0.193 1.012,-0.029 1.33,-0.496 l 0.385,-0.564 c 0.16,-0.235 0.44,-0.379 0.687,-0.352 0.436,0.046 0.889,0.047 1.349,0 0.261,-0.026 0.463,0.117 0.498,0.353 l 0.082,0.565 c 0.066,0.451 0.562,0.682 1.065,0.495 l 1.113,-0.415 c 0.518,-0.193 0.885,-0.73 0.816,-1.199 l -0.082,-0.563 c -0.035,-0.236 0.107,-0.508 0.349,-0.668 0.425,-0.284 0.831,-0.604 1.209,-0.953 0.214,-0.198 0.504,-0.266 0.714,-0.169 l 0.5,0.233 c 0.415,0.194 1.011,-0.029 1.33,-0.496 l 0.683,-1 c 0.319,-0.468 0.241,-1 -0.174,-1.198 m -9.357,1.906 c -1.673,-0.779 -1.988,-2.937 -0.705,-4.819 1.284,-1.882 3.681,-2.776 5.354,-1.996 1.673,0.78 1.988,2.937 0.704,4.819 -1.283,1.882 -3.681,2.775 -5.354,1.996 z"/>
  </g>
</svg>
