<?xml version="1.0" encoding="UTF-8" standalone="no"?>
<svg
    xmlns:svg="http://www.w3.org/2000/svg"
    xmlns="http://www.w3.org/2000/svg"
    xmlns:sodipodi="http://sodipodi.sourceforge.net/DTD/sodipodi-0.dtd"
    xmlns:inkscape="http://www.inkscape.org/namespaces/inkscape"
    version="1.1"
    viewBox="0 0 64 64"
    style="enable-background:new 0 0 64 64;"
    xml:space="preserve"
    sodipodi:docname="icon-config-group.svg"
    inkscape:version="0.92.4 (unknown)">
  <rect
      style="opacity:0;fill:#ffffff;"
      width="64"
      height="64"/>
  <g>
    <path
        style="opacity:1;fill:#ffffff;fill-opacity:0.4;stroke:#ffffff;stroke-width:2;stroke-miterlimit:4;stroke-dasharray:none;stroke-opacity:1"
        d="M 22.368667,19.96334 H 10.03666 v -5.802341 c 0,-1.635369 1.40027,-3.124339 2.937943,-3.124339 h 9.308298 c 3.930224,0.168423 7.26828,4.457985 7.26828,4.457985 0,0 -3.906085,4.463668 -7.182514,4.468695 z"
        inkscape:connector-curvature="0"
        sodipodi:nodetypes="ccssccc"/>
    <path
        style="fill:#ffffff"
        d="M 51.75,53 H 12.25 C 10.458,53 9,51.542 9,49.75 V 20.875 C 9,19.841 9.841,19 10.875,19 h 8.64 c 2.131,0 4.938424,-0.488939 5.460424,-0.787939 0.602,-0.486 2.004637,-1.480879 2.728637,-2.066879 C 29.506092,14.828787 31.37,14.999 33.276,14.999 H 51.792 C 53.561,15 55,16.439 55,18.208 V 49.75 C 55,51.542 53.542,53 51.75,53 Z M 11,21 v 28.75 c 0,0.689 0.561,1.25 1.25,1.25 h 39.5 C 52.439,51 53,50.439 53,49.75 V 18.208 C 53,17.542 52.458,17 51.792,17 H 33.276 c -1.967,0 -2.642514,-0.36291 -4.409818,0.604303 -0.727,0.588 -2.276455,1.584879 -2.916455,2.097879 C 23.70718,21.107516 20.744,21 19.515,21 Z"
        inkscape:connector-curvature="0"
        sodipodi:nodetypes="ssssssccscssscsssssssccsc"/>
  </g>
  <path
      inkscape:connector-curvature="0"
      style="fill:#ffffff;fill-opacity:0.4;stroke-width:0.63831335"
      d="m 43.292924,36.87575 -0.704677,-0.291718 c -0.29553,-0.123198 -0.474891,-0.424491 -0.441061,-0.741743 0.05808,-0.559179 0.05745,-1.126018 -6.38e-4,-1.685835 -0.03383,-0.317252 0.146169,-0.618545 0.441061,-0.741105 l 0.705315,-0.291717 c 0.5834,-0.241291 0.861697,-0.912817 0.619784,-1.495614 L 43.394413,30.374971 C 43.15952,29.810047 42.463779,29.520882 41.896336,29.75515 l -0.704038,0.29108 c -0.29553,0.123198 -0.635103,0.03702 -0.835527,-0.211926 C 40.003156,29.39896 39.602308,28.998087 39.164438,28.642535 38.916141,28.441461 38.83061,28.10123 38.953163,27.80632 l 0.291061,-0.704081 c 0.241914,-0.583436 -0.03574,-1.254323 -0.619783,-1.496251 l -1.251695,-0.518326 c -0.584039,-0.242567 -1.255524,0.03575 -1.496799,0.619182 l -0.291701,0.704719 c -0.121914,0.29491 -0.423827,0.47492 -0.740421,0.44045 -0.560422,-0.05745 -1.127227,-0.05745 -1.687012,0.0012 -0.316593,0.03383 -0.618506,-0.146178 -0.741059,-0.441726 L 32.124693,25.704902 C 31.891077,25.141255 31.194059,24.850814 30.627254,25.08572 l -1.252971,0.518965 c -0.582124,0.241928 -0.86042,0.912815 -0.619145,1.496889 l 0.2917,0.70472 c 0.121915,0.294909 0.03574,0.634502 -0.211914,0.834938 -0.435316,0.354275 -0.837441,0.755786 -1.192333,1.193683 -0.201701,0.246397 -0.541273,0.33321 -0.835527,0.21065 l -0.704676,-0.291718 c -0.583401,-0.24129 -1.254248,0.03638 -1.496162,0.619821 l -0.518933,1.253046 c -0.241913,0.582798 0.03638,1.253686 0.619784,1.495614 l 0.704038,0.291718 c 0.294892,0.122559 0.474253,0.423215 0.440423,0.740466 -0.05745,0.560456 -0.05745,1.127933 0.0012,1.686474 0.03383,0.31789 -0.146169,0.618545 -0.44106,0.740466 l -0.705315,0.293633 c -0.582125,0.241929 -0.861059,0.912816 -0.619145,1.496252 l 0.518932,1.253685 c 0.233616,0.564286 0.929995,0.85345 1.4968,0.619182 l 0.704677,-0.291717 c 0.180637,-0.07468 0.379146,-0.07086 0.552124,0 0.107872,0.04533 0.206807,0.116176 0.284041,0.212564 0.353615,0.43662 0.754464,0.836854 1.191695,1.192406 0.247658,0.200436 0.333828,0.541306 0.211276,0.835577 l -0.291701,0.703442 c -0.241275,0.584713 0.03638,1.256239 0.620421,1.498167 l 1.252334,0.518326 c 0.583401,0.24129 1.254886,-0.03638 1.4968,-0.619821 l 0.2917,-0.705357 c 0.121914,-0.293633 0.423189,-0.473644 0.741059,-0.439812 0.560422,0.05809 1.127227,0.05809 1.685735,-6.38e-4 0.31787,-0.03319 0.618507,0.146178 0.741059,0.441088 l 0.291701,0.705996 c 0.234253,0.564286 0.930632,0.852812 1.496799,0.619182 l 1.252333,-0.518325 c 0.582763,-0.241291 0.861059,-0.912817 0.619145,-1.498167 L 38.953087,42.19306 c -0.122553,-0.295548 -0.03702,-0.63514 0.211913,-0.835577 0.435955,-0.354913 0.836803,-0.755147 1.192333,-1.192405 0.201063,-0.247673 0.541274,-0.33321 0.836165,-0.211926 l 0.703401,0.291717 c 0.584039,0.241928 1.254248,-0.03638 1.4968,-0.61982 l 0.518295,-1.252409 c 0.242551,-0.584712 -0.03511,-1.2556 -0.619146,-1.49689 m -11.057169,2.382896 c -2.352113,-0.974096 -3.469128,-3.671051 -2.495091,-6.023307 0.974675,-2.352256 3.671468,-3.469975 6.02422,-2.495242 2.352113,0.975373 3.46849,3.67169 2.494453,6.023945 -0.974037,2.352256 -3.671468,3.469337 -6.023582,2.494604"/>
</svg>
