<?xml version="1.0" encoding="utf-8" standalone="no"?>
<svg version="1.1" viewBox="0 0 64 64" xmlns="http://www.w3.org/2000/svg">
  <g style="fill:#ffffff">
    <rect style="opacity:0" width="64" height="64"/>
    <path style="opacity:0.4" d="m 10.125,44.8125 c 0,0 0,-31.4375 -0.0625,-31.75 C 10,12.75 11.9375,10.875 11.9375,10.875 L 23,10.9375 27.25,12.875 30,15.75 l 23.0625,0.3125 0.875,2 v 6.928 l -17.771,0.052 -7.0625,2.959 -13.931,0.198 z"/>
    <path d="M 12.975,10.037 C 10.791,10.037 9,11.954 9,14.16 V 50.371 C 9.442,52.501 10.566,52.748 12.25,53 h 39.5 c 2.323,0 2.937,-1.883 2.937,-1.883 L 60.593,26.531 c 0.312,-1.337 0.189,-2.394 -2.642,-2.426 L 55,24.1 V 18.207 C 55.026,16.438 53.562,15 51.793,15 H 30.34 c 0,0 -3.382,-4.764 -8.014,-4.963 h -0.021 z M 22.5,12.205 c 2.188,0.017 3.631,1.325 5.646,3.326 0,0 1.372,1.467 2.332,1.467 l 21.314,0 C 52.459,17 53,17.541 53,18.207 V 24.1 l -13.564,0 c -1.906,0 -3.741,-0.128 -5.775,0.867 -0.827,0.443 -2.404,1.195 -3.092,1.562 -1.387,0.585 -3.469,0.596 -5.6,0.596 h -8.641 c -1.034,0 -2.023,0.634 -2.205,1.416 L 11,41.939 V 14.119 c 0.002,-1.051 0.991,-1.883 2.047,-1.883 z M 37.984,26 H 57.8 c 0.666,0 0.474,1.095 0.36,1.6 L 53,49.75 C 52.834,50.419 52.439,51 51.75,51 h -39.5 c -0.54,0 -1.178,-0.45 -1.172,-0.828 l 4.86787,-21.06 9.232,-0.031 c 1.229,0 3.984,0.056 6.475,-1 C 32.3838,27.686 33.949,26.976 34.779,26.531 36.233,25.983 36.908,26.011 37.984,26 z"/>
  </g>
</svg>
