<?xml version="1.0" encoding="utf-8" standalone="no"?>
<svg version="1.1" viewBox="0 0 86 86" xmlns="http://www.w3.org/2000/svg">
  <linearGradient id="gradient" gradientUnits="userSpaceOnUse" x1="12.5" y1="73.5" x2="73.5" y2="12.5">
    <stop offset="0" style="stop-color:#cc9933;stop-opacity:1"/>
    <stop offset="1" style="stop-color:#f5d9a8;stop-opacity:1"/>
  </linearGradient>
  <rect style="opacity:0;fill:#ffffff" width="86" height="86"/>
  <ellipse style="fill:url(#gradient);" cx="43" cy="43" rx="43" ry="43"/>
  <path style="opacity:0.8;fill:#534054" d="m 43,11 c -17.64,0 -32,14.355 -32,32 0,0.22 0,0.45 0,0.67 -0.01,0.23 0,0.48 0.015,0.68 0.05,1.78 0.4,4.62 0.92,6.59 1.2,4.58 2.62,7.03 5.55,10.705 0.16,0.2 0.39,0.31 0.64,0.31 h 0.14 c 0.3,-0.05 0.54,-0.25 0.64,-0.54 l 5.76,-17.43 c 0.08,-0.25 0.04,-0.485 -0.115,-0.7 -0.16,-0.21 -0.4,-0.26 -0.67,-0.26 L 16.49,43 c 0,-14.62 11.89,-26.51 26.52,-26.51 37.78,3.91 27.91,52.18 0,53.03 -5.58,0 -10.92,-1.71 -15.44,-4.95 -1.24,-0.89 -2.95,-0.6 -3.83,0.63 -0.88,1.23 -0.6,2.94 0.63,3.83 C 29.82,72.93 36.265,75 43,75 60.66,75 75,60.66 75,43 75,25.35 60.65,11 43,11 Z m -1.81,14.1 c -1.51,0 -2.74,1.24 -2.75,2.75 v 17 c 0,1.51 1.23,2.74 2.74,2.74 h 15.22 c 1.51,0 2.74,-1.23 2.74,-2.74 0,-1.51 -1.225,-2.74 -2.74,-2.74 H 43.94 V 27.85 C 43.92,26.28 42.74,25.115 41.19,25.1 z"/>
</svg>
